# xmcd CD database file
#
# Track frame offsets:
#	150
#	14137
#	26166
#	39464
#	53837
#	69336
#	83276
#	97181
#	111496
#	123732
#	136651
#	153578
#	167870
#	179277
#	193767
#	207709
#	222386
#	238470
#	253866
#	270340
#
# Disc length: 3775 seconds
#
# Revision: 0
# Processed by: cddbd v1.5.2PL0 Copyright (c) Steve Scherf et al.
# Submitted via: CDex 1.75
#
DISCID=330ebd14
DTITLE=Oscar Peterson - Absolutely Essential 3 CD Collection
DYEAR=1900
DGENRE=Jazz
TTITLE0=Oscar Peterson - I GotRrhythm
TTITLE1=Oscar Peterson - The C Jam Blues
TTITLE2=Oscar Peterson - Time On My Hands
TTITLE3=Oscar Peterson - Sweet Lorraine
TTITLE4=Oscar Peterson -  I Surrender, Dear
TTITLE5=Oscar Peterson - Stairway To The Stars
TTITLE6=Oscar Peterson - Sweet Georgia Brown
TTITLE7=Oscar Peterson - Rockin' In Rhythm
TTITLE8=Oscar Peterson - Fine And Dandy
TTITLE9=Oscar Peterson - Debut
TTITLE10=Oscar Peterson - Tenderly
TTITLE11=Oscar Peterson - Little White Lies
TTITLE12=Oscar Peterson - Get Happy
TTITLE13=Oscar Peterson - Deep Purple
TTITLE14=Oscar Peterson - Smoke Gets In Your Eyes
TTITLE15=Oscar Peterson - Robbin's Nest
TTITLE16=Oscar Peterson - I'll Remember April
TTITLE17=Oscar Peterson - Squatty Roo
TTITLE18=Oscar Peterson - After All
TTITLE19=Oscar Peterson - Caravan
EXTD=
EXTT0=
EXTT1=
EXTT2=
EXTT3=
EXTT4=
EXTT5=
EXTT6=
EXTT7=
EXTT8=
EXTT9=
EXTT10=
EXTT11=
EXTT12=
EXTT13=
EXTT14=
EXTT15=
EXTT16=
EXTT17=
EXTT18=
EXTT19=
PLAYORDER=
